<svg id="Layer_1" data-name="Layer 1" xmlns="http://www.w3.org/2000/svg" xmlns:xlink="http://www.w3.org/1999/xlink" viewBox="0 0 628.3 665.73"><defs><style>.cls-1{fill:url(#linear-gradient);}.cls-2{fill:url(#linear-gradient-2);}.cls-3{fill:url(#linear-gradient-3);}.cls-4{fill:url(#linear-gradient-4);}.cls-5{fill:url(#linear-gradient-5);}.cls-6{fill:url(#linear-gradient-6);}.cls-7{fill:url(#linear-gradient-7);}.cls-8{fill:url(#linear-gradient-8);}.cls-9{fill:url(#linear-gradient-9);}.cls-10{fill:url(#linear-gradient-10);}.cls-11{fill:url(#linear-gradient-11);}.cls-12{fill:url(#linear-gradient-12);}.cls-13{fill:url(#linear-gradient-13);}.cls-14{fill:url(#linear-gradient-14);}.cls-15{fill:url(#linear-gradient-15);}.cls-16{fill:url(#linear-gradient-16);}.cls-17{fill:url(#linear-gradient-17);}.cls-18{fill:url(#linear-gradient-18);}.cls-19{fill:url(#linear-gradient-19);}.cls-20{fill:url(#linear-gradient-20);}.cls-21{fill:url(#linear-gradient-21);}.cls-22{fill:url(#linear-gradient-22);}.cls-23{fill:url(#linear-gradient-23);}.cls-24{fill:#192c66;}.cls-25{fill:url(#linear-gradient-24);}.cls-26{fill:none;stroke:#192c66;stroke-miterlimit:10;stroke-width:8.57px;}</style><linearGradient id="linear-gradient" x1="313.82" y1="214.26" x2="320.09" y2="104.4" gradientUnits="userSpaceOnUse"><stop offset="0" stop-color="#192c66"/><stop offset="1" stop-color="#388fed"/></linearGradient><linearGradient id="linear-gradient-2" x1="542.74" y1="561.82" x2="545.53" y2="372.09" xlink:href="#linear-gradient"/><linearGradient id="linear-gradient-3" x1="250.11" y1="849.26" x2="246.97" y2="744.11" xlink:href="#linear-gradient"/><linearGradient id="linear-gradient-4" x1="302.24" y1="847.71" x2="299.1" y2="742.55" xlink:href="#linear-gradient"/><linearGradient id="linear-gradient-5" x1="349.09" y1="846.31" x2="345.96" y2="741.15" xlink:href="#linear-gradient"/><linearGradient id="linear-gradient-6" x1="401.2" y1="844.75" x2="398.06" y2="739.6" xlink:href="#linear-gradient"/><linearGradient id="linear-gradient-7" x1="444.92" y1="843.45" x2="441.78" y2="738.29" xlink:href="#linear-gradient"/><linearGradient id="linear-gradient-8" x1="486.5" y1="842.21" x2="483.36" y2="737.05" xlink:href="#linear-gradient"/><linearGradient id="linear-gradient-9" x1="538.92" y1="840.64" x2="535.78" y2="735.49" xlink:href="#linear-gradient"/><linearGradient id="linear-gradient-10" x1="596.14" y1="838.93" x2="593" y2="733.78" xlink:href="#linear-gradient"/><linearGradient id="linear-gradient-11" x1="651.01" y1="837.3" x2="647.87" y2="732.14" xlink:href="#linear-gradient"/><linearGradient id="linear-gradient-12" x1="712.99" y1="835.45" x2="709.85" y2="730.29" xlink:href="#linear-gradient"/><linearGradient id="linear-gradient-13" x1="772.73" y1="833.66" x2="769.59" y2="728.51" xlink:href="#linear-gradient"/><linearGradient id="linear-gradient-14" x1="832.37" y1="831.88" x2="829.23" y2="726.73" xlink:href="#linear-gradient"/><linearGradient id="linear-gradient-15" x1="317.72" y1="926.5" x2="316.67" y2="792.57" xlink:href="#linear-gradient"/><linearGradient id="linear-gradient-16" x1="380.87" y1="926.01" x2="379.82" y2="792.08" xlink:href="#linear-gradient"/><linearGradient id="linear-gradient-17" x1="453.25" y1="925.44" x2="452.21" y2="791.51" xlink:href="#linear-gradient"/><linearGradient id="linear-gradient-18" x1="516.77" y1="924.95" x2="515.72" y2="791.02" xlink:href="#linear-gradient"/><linearGradient id="linear-gradient-19" x1="588.18" y1="924.39" x2="587.14" y2="790.46" xlink:href="#linear-gradient"/><linearGradient id="linear-gradient-20" x1="647.09" y1="923.93" x2="646.05" y2="790" xlink:href="#linear-gradient"/><linearGradient id="linear-gradient-21" x1="706.42" y1="923.46" x2="705.37" y2="789.54" xlink:href="#linear-gradient"/><linearGradient id="linear-gradient-22" x1="755.55" y1="923.08" x2="754.5" y2="789.15" xlink:href="#linear-gradient"/><linearGradient id="linear-gradient-23" x1="553.93" y1="765.78" x2="542.94" y2="194.49" gradientUnits="userSpaceOnUse"><stop offset="0.24" stop-color="#192c66"/><stop offset="0.6" stop-color="#2960ad"/><stop offset="0.87" stop-color="#3482db"/><stop offset="1" stop-color="#388fed"/></linearGradient><linearGradient id="linear-gradient-24" x1="555.51" y1="764.35" x2="549.23" y2="528.93" xlink:href="#linear-gradient"/></defs><circle class="cls-1" cx="317.2" cy="155.05" r="54.41"/><path class="cls-2" d="M663.22,556.82l-.1.07a8.06,8.06,0,0,1-9.16.25,49.44,49.44,0,0,0-27.32-8.22,47.41,47.41,0,0,0-7.33.55,141.58,141.58,0,0,1-20.51,1.44c-31.75,0-62.91-9.1-78.67-14.54a182,182,0,0,0-59.3-10.19c-2.66,0-5.33.07-8,.19a174,174,0,0,0-33.32,4.8c23.1-62.84,68.44-105.54,120.6-105.54,56.65,0,105.28,50.41,126.09,122.32A8.14,8.14,0,0,1,663.22,556.82Z" transform="translate(-225.85 -207.13)"/><path class="cls-3" d="M225.85,779.18h15.7c0,4,3,5.87,6.52,5.87,3.19,0,6.23-1.7,6.23-4.71,0-3.47-4.3-4.48-9.56-5.75-8-2-18.18-4.43-18.18-17,0-10.88,8-17.12,21-17.12,13.25,0,20.85,6.8,20.85,18H253.16c0-3.49-2.6-5.13-5.76-5.13-2.71,0-5.31,1.18-5.31,3.75,0,3.14,4.16,4.18,9.36,5.49,8.14,2.1,18.77,4.82,18.77,17.43,0,12.07-9.27,18.34-22.1,18.34C234.59,798.38,225.85,791.23,225.85,779.18Z" transform="translate(-225.85 -207.13)"/><path class="cls-4" d="M322.2,761.73c0,11.59-8.73,20-20.48,20h-8.27V797H278.2V741.77h23.52C313.47,741.77,322.2,750.14,322.2,761.73Zm-15.65,0a6.35,6.35,0,0,0-6.65-6.71h-6.45v13.41h6.45A6.35,6.35,0,0,0,306.55,761.77Z" transform="translate(-225.85 -207.13)"/><path class="cls-5" d="M365.15,783.82V797h-36V741.77h35.36v13.16h-20.2v8.13h18.15v12.49H344.28v8.27Z" transform="translate(-225.85 -207.13)"/><path class="cls-6" d="M399.6,798.42c-16.82,0-29.38-12.45-29.38-29s12.56-29.07,29.38-29.07c14.48,0,25.7,9.56,27.94,23.57H412.12c-1.9-5.67-6.67-9.35-12.49-9.35-7.82,0-13.56,6.3-13.56,14.85s5.74,14.73,13.56,14.73c6.13,0,10.95-4,12.5-10.14H427.7c-2.1,14.53-13.38,24.39-28.1,24.39Z" transform="translate(-225.85 -207.13)"/><path class="cls-7" d="M435,741.77h15.43V797H435Z" transform="translate(-225.85 -207.13)"/><path class="cls-8" d="M494.73,788.05H475.14l-3.06,9H455.77l21.7-55.26h14.89L514.54,797H497.77Zm-9.83-29-6,17.13H491Z" transform="translate(-225.85 -207.13)"/><path class="cls-9" d="M555,783.08V797h-35.1V741.77h15.43v41.31Z" transform="translate(-225.85 -207.13)"/><path class="cls-10" d="M616.1,755.47h-15V797H585.8V755.47h-15v-13.7H616.1Z" transform="translate(-225.85 -207.13)"/><path class="cls-11" d="M649,798.42c-17.77,0-30.44-12.13-30.44-29s12.67-29,30.44-29,30.35,12.09,30.35,29-12.63,29-30.35,29Zm0-14.16c8.41,0,14.5-6.21,14.5-14.86s-6.09-14.86-14.5-14.86-14.59,6.26-14.59,14.86,6.18,14.86,14.59,14.86Z" transform="translate(-225.85 -207.13)"/><path class="cls-12" d="M686.58,775.65V741.77h15.56v33.59c0,5.41,3.48,8.9,8.56,8.9s8.56-3.49,8.56-8.9V741.77h15.56v33.88c0,13.59-10,22.77-24.12,22.77S686.58,789.24,686.58,775.65Z" transform="translate(-225.85 -207.13)"/><path class="cls-13" d="M771.46,798.42c-16.82,0-29.38-12.45-29.38-29s12.56-29.07,29.38-29.07c14.48,0,25.7,9.56,27.94,23.57H784c-1.9-5.67-6.67-9.35-12.49-9.35-7.82,0-13.56,6.3-13.56,14.85s5.74,14.73,13.56,14.73c6.13,0,11-4,12.5-10.14h15.57c-2.1,14.53-13.38,24.39-28.1,24.39Z" transform="translate(-225.85 -207.13)"/><path class="cls-14" d="M854.15,741.77V797H838.79V775.81H822.21V797H806.85V741.77h15.36V761.7h16.58V741.77Z" transform="translate(-225.85 -207.13)"/><path class="cls-15" d="M341.23,815v56.47H325.54V849.76h-17v21.68H292.9V815h15.69v20.37h17V815Z" transform="translate(-225.85 -207.13)"/><path class="cls-16" d="M349.16,843.2c0-17.26,13-29.66,31.11-29.66s31,12.36,31,29.66-12.91,29.67-31,29.67S349.16,860.46,349.16,843.2Zm45.92,0c0-8.83-6.22-15.18-14.81-15.18s-14.91,6.39-14.91,15.18,6.31,15.19,14.91,15.19S395.08,852,395.08,843.2Z" transform="translate(-225.85 -207.13)"/><path class="cls-17" d="M474.51,871.44l-4.41-32.52-15,32.61h-4.6l-15-32.6-4.34,32.51H415.45L424,815h15.54l13.3,30.72L466.21,815h15.54l8.46,56.47Z" transform="translate(-225.85 -207.13)"/><path class="cls-18" d="M534.71,857.94v13.5H497.89V815H534v13.45H513.38v8.31h18.55v12.76H513.38v8.45Z" transform="translate(-225.85 -207.13)"/><path class="cls-19" d="M558.2,843.25c0-17,12.84-29.71,30-29.71,14.8,0,26.26,9.77,28.56,24.09H601c-1.94-5.79-6.82-9.55-12.76-9.55-8,0-13.87,6.42-13.87,15.17s5.87,15,13.87,15c6.26,0,11.19-4.09,12.77-10.36h15.91c-2.15,14.85-13.68,24.93-28.72,24.93C571,872.87,558.2,860.14,558.2,843.25Z" transform="translate(-225.85 -207.13)"/><path class="cls-20" d="M656.47,862.26h-20l-3.12,9.18H616.65L638.84,815H654l22.67,56.47H659.58Zm-10-29.67-6.19,17.5h12.43Z" transform="translate(-225.85 -207.13)"/><path class="cls-21" d="M703.35,854.16h-5.64v17.28H682.15V815h24.47c12.18,0,21,8.18,21,20a18.08,18.08,0,0,1-9,15.95l11.21,20.54H712.51Zm-5.64-13.11h7.1c4.35,0,6.85-2.61,6.85-6.14s-2.5-6.12-6.85-6.12h-7.1Z" transform="translate(-225.85 -207.13)"/><path class="cls-22" d="M773.5,857.94v13.5H736.68V815h36.14v13.45H752.17v8.31h18.55v12.76H752.17v8.45Z" transform="translate(-225.85 -207.13)"/><path class="cls-23" d="M800.13,409.39h0a13.07,13.07,0,0,1-18.28,2.79l-6-4.38v65a13.09,13.09,0,0,1-13.08,13.09h0a13.09,13.09,0,0,1-13.09-13.09V388.58l-202.79-149L349,385V681.36a13.08,13.08,0,0,1-13.08,13.09h0a13.08,13.08,0,0,1-13.08-13.09V404.23l-10.83,8a13.08,13.08,0,0,1-18.28-2.8h0a13.07,13.07,0,0,1,2.79-18.28l26.32-19.34,3.73-2.74,216-158.71,4.34-3.19,4.32,3.19L797.34,391.11A13.07,13.07,0,0,1,800.13,409.39Z" transform="translate(-225.85 -207.13)"/><path class="cls-24" d="M547.84,713A104.17,104.17,0,0,1,527,710.87c-22.39-4.59-99.88-19.55-156.7-19.55-15.41,0-28.17,1.09-37.93,3.26l-10.43,2.33V653.64a87.05,87.05,0,0,1,20.7-56.49c21.23-24.89,58.24-55.12,114-57.77,2.36-.11,4.77-.17,7.15-.17a164.67,164.67,0,0,1,53.72,9.26c16.77,5.77,50,15.46,84.25,15.46a156.62,156.62,0,0,0,23-1.63,32.14,32.14,0,0,1,33.38,17.08c20-14,55.11-39.23,71.34-55.45A38,38,0,0,1,756,512.6c.62,0,1.23,0,1.84,0,9.68.51,15.07,4.56,17.88,7.87,4.2,5,5.87,11.65,5,19.94a44.79,44.79,0,0,1-6.6,18.72c-9,14.5-33.86,52-71.83,86.33C653.5,689.64,602,712.36,549.07,713Z" transform="translate(-225.85 -207.13)"/><path class="cls-25" d="M330.5,686.22V653.64a78.46,78.46,0,0,1,18.65-50.93c19.46-22.8,54.62-52.24,107.84-54.77a154.92,154.92,0,0,1,57.68,8.63C536,563.93,582.78,577.25,626,570.78A23.41,23.41,0,0,1,650.84,584c2.13,4.72,2.3,9.48-2.61,12.62,0,0,63.35-42.67,87.31-66.62a29,29,0,0,1,21.84-8.78c8.25.44,16.3,4.31,14.77,18.32a36.54,36.54,0,0,1-5.38,15.15C750.06,581.75,668.65,702.94,549,704.45a95.06,95.06,0,0,1-20.25-2C497.2,696,383.67,674.39,330.5,686.22Z" transform="translate(-225.85 -207.13)"/><path class="cls-26" d="M504.74,609.68c99.87,19.78,137.7-7.16,151-23.69" transform="translate(-225.85 -207.13)"/></svg>