<svg width="240" height="60" viewBox="0 0 240 60" fill="none" xmlns="http://www.w3.org/2000/svg">
  <path d="M33.814 10C25.268 10 18.345 16.923 18.345 25.469C18.345 34.015 25.268 40.938 33.814 40.938C42.36 40.938 49.283 34.015 49.283 25.469C49.283 16.923 42.36 10 33.814 10Z" fill="#5BBAED"/>
  <path d="M19.634 45.156H48.007V50H19.634V45.156Z" fill="#5BBAED"/>
  <path d="M3.864 15.468H0V50H3.864V15.468Z" fill="#F5A742"/>
  <path d="M9.727 21.25H5.863V50H9.727V21.25Z" fill="#F5A742"/>
  <path d="M15.59 15.468H11.726V50H15.59V15.468Z" fill="#F5A742"/>
  <path d="M64.52 15.469L61.348 26.953H60.27L57.098 15.469H53.035L58.34 31.836H63.176L68.582 15.469H64.52Z" fill="#F5A742"/>
  <path d="M81.012 15.469H76.871V22.734H72.652V26.172H76.871V31.836H81.012V26.172H85.250V22.734H81.012V15.469Z" fill="#F5A742"/>
  <path d="M100.328 31.836H104.468V15.469H100.328V22.148H93.281V15.469H89.14V31.836H93.281V25.508H100.328V31.836Z" fill="#F5A742"/>
  <path d="M111.902 15.469L105.777 31.836H110.058L111.195 28.828H116.273L117.429 31.836H121.71L115.605 15.469H111.902ZM112.273 25.781L113.734 21.504L115.195 25.781H112.273Z" fill="#F5A742"/>
  <path d="M124.5 15.469V31.836H128.641V25.859H132.921C135.945 25.859 138.398 23.789 138.398 20.664C138.398 17.539 135.945 15.469 132.921 15.469H124.5ZM128.641 22.734V18.594H132.425C133.727 18.594 134.57 19.437 134.57 20.664C134.57 21.89 133.727 22.734 132.425 22.734H128.641Z" fill="#F5A742"/>
  <path d="M139.98 31.836H144.121V15.469H139.98V31.836Z" fill="#F5A742"/>
  <path d="M73.106 38.008C71.394 38.008 70.17 37.656 68.668 36.562L70.424 34.14C71.348 34.906 72.386 35.258 73.364 35.258C74.396 35.258 74.99 34.812 74.99 34.062C74.99 33.37 74.52 33.074 72.95 32.778C70.466 32.3 68.71 31.266 68.71 28.648C68.71 26.032 70.944 24.22 73.75 24.22C75.408 24.22 76.8 24.714 77.966 25.574L76.352 28.04C75.498 27.5 74.46 27.012 73.622 27.012C72.702 27.012 72.192 27.372 72.192 28.054C72.192 28.694 72.662 29.032 74.268 29.342C76.842 29.86 78.516 30.89 78.516 33.37C78.516 36.152 76.29 38.008 73.106 38.008Z" fill="#5BBAED"/>
  <path d="M90.318 38.008C86.368 38.008 83.374 34.924 83.374 31.1C83.374 27.278 86.368 24.192 90.318 24.192C94.224 24.192 97.19 27.264 97.19 31.1C97.19 34.938 94.224 38.008 90.318 38.008ZM90.318 27.026C88.21 27.026 86.714 28.746 86.714 31.1C86.714 33.456 88.21 35.174 90.318 35.174C92.37 35.174 93.85 33.454 93.85 31.1C93.85 28.746 92.37 27.026 90.318 27.026Z" fill="#5BBAED"/>
  <path d="M108.922 27.028C107.192 27.028 106.016 28.112 106.016 30.05V37.65H102.676V24.546H106.016V26.058C106.99 24.87 108.356 24.346 109.81 24.346C113.152 24.346 115.3 26.586 115.3 30.39V37.65H111.96V30.672C111.96 28.466 110.82 27.028 108.922 27.028Z" fill="#5BBAED"/>
  <path d="M126.912 38.008C122.962 38.008 119.968 34.924 119.968 31.1C119.968 27.278 122.962 24.192 126.912 24.192C130.818 24.192 133.784 27.264 133.784 31.1C133.784 34.938 130.818 38.008 126.912 38.008ZM126.912 27.026C124.804 27.026 123.308 28.746 123.308 31.1C123.308 33.456 124.804 35.174 126.912 35.174C128.964 35.174 130.444 33.454 130.444 31.1C130.444 28.746 128.964 27.026 126.912 27.026Z" fill="#5BBAED"/>
  <path d="M146.202 27.028C144.984 27.028 143.938 27.566 143.118 28.536C143.146 28.886 143.16 29.264 143.16 29.614V37.65H139.82V24.546H143.16V26.5C144.048 25.126 145.368 24.36 146.766 24.36C147.304 24.36 147.726 24.43 148.148 24.586L147.53 27.632C147.094 27.266 146.656 27.028 146.202 27.028Z" fill="#5BBAED"/>
  <path d="M156.572 37.65V35.724C155.596 37.142 154.154 38.008 152.404 38.008C149.48 38.008 147.33 36.136 147.33 32.862V24.546H150.67V32.03C150.67 34.04 151.59 35.204 153.322 35.204C155.026 35.204 156.572 33.902 156.572 31.748V24.546H159.912V37.65H156.572Z" fill="#5BBAED"/>
  <path d="M165.474 32.904L161.342 24.546H165.166L167.26 29.996L169.424 24.546H173.248L167.428 37.65H163.732L165.474 32.904Z" fill="#5BBAED"/>
  <path d="M185.308 37.65V36.21C184.374 37.256 182.89 38.008 181.026 38.008C177.904 38.008 176.052 36.35 176.052 34.194C176.052 31.836 178.046 30.334 181.21 30.334H185.308V29.838C185.308 27.986 184.08 27.098 182.06 27.098C180.596 27.098 179.204 27.584 178.214 28.396L176.756 26.184C178.186 24.982 180.07 24.192 182.37 24.192C186.058 24.192 188.648 25.918 188.648 29.698V37.65H185.308ZM185.308 32.674V32.576H181.532C179.75 32.576 178.998 33.272 178.998 34.236C178.998 35.24 179.876 35.978 181.504 35.978C183.188 35.978 184.848 34.866 185.308 32.674Z" fill="#5BBAED"/>
  <path d="M191.738 37.65V24.546H195.078V26.5C196.264 25.14 198.092 24.36 199.696 24.36V27.756C199.442 27.698 199.134 27.67 198.728 27.67C197.11 27.67 195.078 28.972 195.078 31.266V37.65H191.738Z" fill="#5BBAED"/>
  <path d="M206.788 38.008C204.512 38.008 202.854 36.576 202.854 34.138V27.37H200.69V24.546H202.854V20.734H206.194V24.546H209.588V27.37H206.194V33.62C206.194 34.624 206.774 35.174 207.644 35.174C208.45 35.174 209.138 34.764 209.588 34.236V37.296C208.814 37.796 207.896 38.008 206.788 38.008Z" fill="#5BBAED"/>
  <path d="M214.172 22.032C212.96 22.032 212.03 21.074 212.03 19.834C212.03 18.594 212.96 17.622 214.172 17.622C215.412 17.622 216.344 18.594 216.344 19.834C216.344 21.074 215.412 22.032 214.172 22.032ZM212.002 37.65V24.546H216.378V37.65H212.002Z" fill="#5BBAED"/>
  <path d="M227.446 38.008C225.654 38.008 223.784 37.48 222.46 36.49L224.12 34.11C225.108 34.81 226.428 35.216 227.516 35.216C228.506 35.216 229.1 34.852 229.1 34.25C229.1 33.59 228.63 33.318 227.068 33.038C224.764 32.576 222.824 31.744 222.824 28.986C222.824 26.354 224.932 24.36 227.978 24.36C229.66 24.36 231.424 24.87 232.596 25.762L231.128 28.184C230.332 27.546 229.184 27.166 228.1 27.166C227.138 27.166 226.544 27.516 226.544 28.1C226.544 28.76 227.026 29.032 228.59 29.312C230.962 29.796 232.818 30.602 232.818 33.232C232.818 36.05 230.64 38.008 227.446 38.008Z" fill="#5BBAED"/>
  <path d="M238.94 31.86H233.84L234.382 29.036H238.42L238.94 31.86Z" fill="#5BBAED"/>
</svg> 