<svg id="Layer_1" data-name="Layer 1" xmlns="http://www.w3.org/2000/svg" viewBox="0 0 641.18 679.38"><defs><style>.cls-1{fill:#fff;}</style></defs><circle class="cls-1" cx="323.7" cy="158.23" r="55.52"/><path class="cls-1" d="M665.9,557.61l-.1.07a8.19,8.19,0,0,1-9.34.26,50.57,50.57,0,0,0-27.89-8.38,47.89,47.89,0,0,0-7.47.56,144.54,144.54,0,0,1-20.93,1.47c-32.41,0-64.21-9.29-80.29-14.84a185.75,185.75,0,0,0-60.51-10.4c-2.72,0-5.45.07-8.14.2a176,176,0,0,0-34,4.9c23.57-64.14,69.84-107.71,123.07-107.71,57.81,0,107.44,51.44,128.68,124.82A8.31,8.31,0,0,1,665.9,557.61Z" transform="translate(-219.57 -200.76)"/><path class="cls-1" d="M219.57,784.54h16c0,4,3.11,6,6.66,6,3.25,0,6.36-1.74,6.36-4.82,0-3.53-4.39-4.56-9.76-5.86-8.15-2-18.56-4.52-18.56-17.36,0-11.11,8.16-17.47,21.46-17.47C255.27,745,263,752,263,763.44H247.44c0-3.57-2.66-5.24-5.88-5.24-2.76,0-5.42,1.2-5.42,3.83,0,3.2,4.25,4.26,9.56,5.59,8.3,2.15,19.15,4.92,19.15,17.8,0,12.31-9.46,18.7-22.56,18.7C228.49,804.12,219.57,796.83,219.57,784.54Z" transform="translate(-219.57 -200.76)"/><path class="cls-1" d="M317.89,766.73c0,11.82-8.91,20.44-20.89,20.44h-8.44v15.58H273v-56.4h24C309,746.35,317.89,754.9,317.89,766.73Zm-16,0a6.48,6.48,0,0,0-6.79-6.84h-6.57v13.69h6.57A6.49,6.49,0,0,0,301.92,766.76Z" transform="translate(-219.57 -200.76)"/><path class="cls-1" d="M361.72,789.27v13.48H325v-56.4H361v13.43H340.42v8.31h18.52v12.74H340.42v8.44Z" transform="translate(-219.57 -200.76)"/><path class="cls-1" d="M396.88,804.17c-17.17,0-30-12.7-30-29.57s12.81-29.67,30-29.67c14.78,0,26.22,9.75,28.52,24.05H409.65c-1.93-5.78-6.8-9.54-12.74-9.54-8,0-13.84,6.43-13.84,15.16s5.86,15,13.84,15c6.26,0,11.18-4.07,12.76-10.34h15.89c-2.15,14.83-13.66,24.89-28.68,24.89Z" transform="translate(-219.57 -200.76)"/><path class="cls-1" d="M433,746.35h15.74v56.4H433Z" transform="translate(-219.57 -200.76)"/><path class="cls-1" d="M494,793.59H474l-3.12,9.16H454.2l22.15-56.4h15.19l22.63,56.4h-17.1Zm-10-29.64-6.18,17.48h12.42Z" transform="translate(-219.57 -200.76)"/><path class="cls-1" d="M555.42,788.52v14.23H519.61v-56.4h15.74v42.17Z" transform="translate(-219.57 -200.76)"/><path class="cls-1" d="M617.81,760.34H602.49v42.41h-15.6V760.34H571.57v-14h46.24Z" transform="translate(-219.57 -200.76)"/><path class="cls-1" d="M651.42,804.17c-18.13,0-31.07-12.38-31.07-29.62s12.94-29.62,31.07-29.62,31,12.34,31,29.62-12.89,29.62-31,29.62Zm0-14.45c8.58,0,14.79-6.34,14.79-15.17s-6.21-15.16-14.79-15.16-14.89,6.38-14.89,15.16,6.3,15.17,14.89,15.17Z" transform="translate(-219.57 -200.76)"/><path class="cls-1" d="M689.74,780.93V746.35h15.88v34.29c0,5.51,3.55,9.08,8.74,9.08s8.73-3.57,8.73-9.08V746.35H739v34.58c0,13.87-10.24,23.24-24.61,23.24S689.74,794.8,689.74,780.93Z" transform="translate(-219.57 -200.76)"/><path class="cls-1" d="M776.36,804.17c-17.17,0-30-12.7-30-29.57s12.81-29.67,30-29.67c14.78,0,26.22,9.75,28.52,24.05H789.14c-1.94-5.78-6.81-9.54-12.75-9.54-8,0-13.84,6.43-13.84,15.16s5.86,15,13.84,15c6.26,0,11.18-4.07,12.76-10.34H805c-2.15,14.83-13.66,24.89-28.68,24.89Z" transform="translate(-219.57 -200.76)"/><path class="cls-1" d="M860.75,746.35v56.4H845.07V781.1H828.15v21.65H812.48v-56.4h15.67V766.7h16.92V746.35Z" transform="translate(-219.57 -200.76)"/><path class="cls-1" d="M337.32,821.06v57.62h-16V856.56H304v22.12H288V821.06h16v20.79H321.3V821.06Z" transform="translate(-219.57 -200.76)"/><path class="cls-1" d="M345.41,849.87c0-17.61,13.22-30.27,31.74-30.27s31.65,12.61,31.65,30.27-13.17,30.27-31.65,30.27S345.41,867.48,345.41,849.87Zm46.86,0c0-9-6.35-15.5-15.12-15.5s-15.21,6.53-15.21,15.5,6.44,15.5,15.21,15.5S392.27,858.89,392.27,849.87Z" transform="translate(-219.57 -200.76)"/><path class="cls-1" d="M473.33,878.68l-4.5-33.19-15.28,33.29h-4.69l-15.28-33.27-4.43,33.17H413.06l8.71-57.62h15.86l13.57,31.35,13.66-31.35h15.85l8.63,57.62Z" transform="translate(-219.57 -200.76)"/><path class="cls-1" d="M534.75,864.91v13.77H497.19V821.06h36.87v13.72H513v8.48h18.93v13H513v8.63Z" transform="translate(-219.57 -200.76)"/><path class="cls-1" d="M558.73,849.92c0-17.33,13.1-30.32,30.64-30.32,15.1,0,26.8,10,29.14,24.58H602.42c-2-5.91-6.95-9.75-13-9.75-8.16,0-14.14,6.56-14.14,15.49s6,15.35,14.14,15.35c6.4,0,11.42-4.16,13-10.57h16.23c-2.19,15.15-13.95,25.44-29.3,25.44C571.83,880.14,558.73,867.15,558.73,849.92Z" transform="translate(-219.57 -200.76)"/><path class="cls-1" d="M659,869.32H638.59l-3.2,9.36h-17L641,821.06h15.52l23.13,57.62H662.19ZM648.77,839l-6.32,17.86h12.69Z" transform="translate(-219.57 -200.76)"/><path class="cls-1" d="M706.85,861.05h-5.76v17.63H685.22V821.06h25c12.42,0,21.42,8.34,21.42,20.39a18.44,18.44,0,0,1-9.14,16.27l11.44,21H716.2Zm-5.76-13.37h7.26c4.43,0,7-2.68,7-6.28s-2.56-6.24-7-6.24h-7.26Z" transform="translate(-219.57 -200.76)"/><path class="cls-1" d="M778.44,864.91v13.77H740.87V821.06h36.87v13.72H756.68v8.48H775.6v13H756.68v8.63Z" transform="translate(-219.57 -200.76)"/><path class="cls-1" d="M805.62,407.17A13.35,13.35,0,0,1,787,410l-6.08-4.46v66.32a13.34,13.34,0,0,1-22.79,9.43,13.2,13.2,0,0,1-3.92-9.43V385.92l-206.94-152-202,148.39V684.72a14.26,14.26,0,0,1-.11,1.74,160.54,160.54,0,0,0-25.71,3.07,12.32,12.32,0,0,1-.64-2.17,13.51,13.51,0,0,1-.26-2.64V401.9l-11,8.12a13.34,13.34,0,1,1-15.79-21.51l26.83-19.73,3.82-2.8L542.8,204l4.43-3.26,4.4,3.26L802.77,388.51A13.35,13.35,0,0,1,805.62,407.17Z" transform="translate(-219.57 -200.76)"/><path class="cls-1" d="M769.47,540A37.33,37.33,0,0,1,764,555.43c-17,27.63-100.14,151.3-222.28,152.85a96.91,96.91,0,0,1-20.66-2c-27.6-5.66-116.88-22.71-175.92-19.79a160.54,160.54,0,0,0-25.71,3.07l-.64.13V656.42a80,80,0,0,1,19-52c2.27-2.66,4.74-5.4,7.43-8.18,20.86-21.59,54.51-45.42,102.62-47.71a158.08,158.08,0,0,1,58.86,8.8c21.8,7.51,69.51,21.11,113.64,14.5a23.87,23.87,0,0,1,25.31,13.49c.15.32.28.65.41,1-6.62,7.58-18.79,17.18-40.41,23-27.86,7.47-64.28,6.84-108.26-1.87l-1.64,8.28c25.73,5.1,47.54,7.2,66,7.2,46.88,0,72.32-13.54,85.8-26a161.4,161.4,0,0,1,16.63-13.32c21.09-14.89,52.48-37.89,67.9-53.3a29.54,29.54,0,0,1,22.28-9C762.82,521.73,771,525.68,769.47,540Z" transform="translate(-219.57 -200.76)"/></svg>